<svg xmlns="http://www.w3.org/2000/svg" viewBox="0 0 24.25 24.32"><title>mapButton</title><path d="M408.68,148.93a11.5,11.5,0,0,0-4.44-4.19,12,12,0,0,0-5.8-1.49,12.57,12.57,0,0,0-4.17.74,13,13,0,0,0-3.94,2.28,12.1,12.1,0,0,0-.47,17.85,12.37,12.37,0,0,0,14.42,2,11.67,11.67,0,0,0,4.48-4.31,12.27,12.27,0,0,0,1.67-6.56A12,12,0,0,0,408.68,148.93Zm-13.45-4.07a17.38,17.38,0,0,0-2,3.72,12.5,12.5,0,0,1-2.4-1.33A9.21,9.21,0,0,1,395.23,144.86ZM390.09,148a3,3,0,0,0,.69.49q0.46,0.25,1,.51l1.15,0.53a11.1,11.1,0,0,0-.81,2.43,13.8,13.8,0,0,0-.44,3H387.3A11.15,11.15,0,0,1,390.09,148Zm-2,11.46a10.58,10.58,0,0,1-.71-3.52h4.31a17.83,17.83,0,0,0,1.18,5.43q-2.61,1.32-2.79,1.47A9.74,9.74,0,0,1,388.1,159.46Zm2.74,4.16a17.89,17.89,0,0,1,2.4-1.32,25.64,25.64,0,0,0,2.06,3.75A13.64,13.64,0,0,1,390.83,163.62Zm7,2.86-1.12-.07a21.62,21.62,0,0,1-2.48-4.53,17.71,17.71,0,0,1,3.6-.86v5.46Zm0-6.42a11,11,0,0,0-3.89,1,12.51,12.51,0,0,1-.78-2.4,12.83,12.83,0,0,1-.41-2.67h5.07v4.11Zm0-5.14h-5.07a13,13,0,0,1,1.12-5,11.76,11.76,0,0,0,4,1v4.06Zm0-5.17a7.41,7.41,0,0,1-1.59-.22c-0.66-.14-1.34-0.32-2-0.53a20.58,20.58,0,0,1,2.48-4.46l0.34-.05a2.64,2.64,0,0,1,.39,0h0.39v5.27Zm10.77,1.39a10.27,10.27,0,0,1,.74,3.79H405a14.35,14.35,0,0,0-1.22-5.39,20.18,20.18,0,0,0,2.75-1.52A8.66,8.66,0,0,1,408.56,151.13Zm-2.74-3.89a16.19,16.19,0,0,1-2.37,1.4,16.1,16.1,0,0,0-2.16-3.85A12.65,12.65,0,0,1,405.83,147.24Zm-7-2.77h0.39a1.65,1.65,0,0,1,.64.07,17.19,17.19,0,0,1,2.57,4.39,8.18,8.18,0,0,1-3.6.81v-5.27Zm0,6.39a11.06,11.06,0,0,0,4-1,8.66,8.66,0,0,1,.74,2.25,13.49,13.49,0,0,1,.37,2.77h-5.07v-4.06Zm0,5.09h5.07a14.14,14.14,0,0,1-1.12,5.07,8.35,8.35,0,0,0-1.88-.69,5.77,5.77,0,0,0-2.08-.27v-4.11Zm0,10.53v-5.39a12.67,12.67,0,0,1,3.6.79,23.23,23.23,0,0,1-2.5,4.53Zm2.57-.51a10.31,10.31,0,0,0,.93-1.39,12.78,12.78,0,0,0,.69-1.49c0.2-.51.32-0.78,0.34-0.79a18.12,18.12,0,0,1,2.43,1.32A8.19,8.19,0,0,1,401.43,166Zm7.08-6.22a9.32,9.32,0,0,1-1.91,3.09,6.54,6.54,0,0,0-1-.59l-1.81-.95a15.61,15.61,0,0,0,1.28-5.36h4.24A10,10,0,0,1,408.51,159.75Z" transform="translate(-386.17 -143.25)"/></svg>